<svg width="90" height="87" viewBox="0 0 90 87" fill="none" xmlns="http://www.w3.org/2000/svg">
<circle cx="31.3165" cy="27.2704" r="5.34212" fill="url(#paint0_radial_9403_641)"/>
<g opacity="0.67" filter="url(#filter0_f_9403_641)">
<path d="M42.6346 27.9885C46.2124 31.2174 54.6084 34.6413 51.3795 38.2191C48.1506 41.7968 29.6949 52.017 22.0105 48.0666C18.4328 44.8377 25.2159 34.4411 28.4448 30.8633C31.6737 27.2855 39.0568 24.7596 42.6346 27.9885Z" fill="url(#paint1_linear_9403_641)" fill-opacity="0.3"/>
</g>
<g filter="url(#filter1_ii_9403_641)">
<path fill-rule="evenodd" clip-rule="evenodd" d="M37.098 41.9326V41.9329H30.0729C26.5763 41.9329 23.7417 39.0983 23.7417 35.6017C23.7417 32.105 26.5763 29.2704 30.0729 29.2704H30.4198C31.6471 29.2704 32.797 29.6015 33.7852 30.1792C35.0698 26.3731 38.6693 23.6328 42.9087 23.6328H43.3857C48.4391 23.6328 52.5357 27.7293 52.5357 32.7827C52.5357 37.836 48.4391 41.9326 43.3857 41.9326H37.098Z" fill="white"/>
</g>
<defs>
<filter id="filter0_f_9403_641" x="-16.881" y="-11.3745" width="106.862" height="98.2113" filterUnits="userSpaceOnUse" color-interpolation-filters="sRGB">
<feFlood flood-opacity="0" result="BackgroundImageFix"/>
<feBlend mode="normal" in="SourceGraphic" in2="BackgroundImageFix" result="shape"/>
<feGaussianBlur stdDeviation="18.9384" result="effect1_foregroundBlur_9403_641"/>
</filter>
<filter id="filter1_ii_9403_641" x="8.59094" y="11.0071" width="50.6784" height="40.1846" filterUnits="userSpaceOnUse" color-interpolation-filters="sRGB">
<feFlood flood-opacity="0" result="BackgroundImageFix"/>
<feBlend mode="normal" in="SourceGraphic" in2="BackgroundImageFix" result="shape"/>
<feColorMatrix in="SourceAlpha" type="matrix" values="0 0 0 0 0 0 0 0 0 0 0 0 0 0 0 0 0 0 127 0" result="hardAlpha"/>
<feOffset dx="6.73367" dy="-12.6256"/>
<feGaussianBlur stdDeviation="12.6256"/>
<feComposite in2="hardAlpha" operator="arithmetic" k2="-1" k3="1"/>
<feColorMatrix type="matrix" values="0 0 0 0 0 0 0 0 0 0 0 0 0 0 0 0 0 0 0.2 0"/>
<feBlend mode="normal" in2="shape" result="effect1_innerShadow_9403_641"/>
<feColorMatrix in="SourceAlpha" type="matrix" values="0 0 0 0 0 0 0 0 0 0 0 0 0 0 0 0 0 0 127 0" result="hardAlpha"/>
<feOffset dx="-15.1508" dy="9.2588"/>
<feGaussianBlur stdDeviation="12.6256"/>
<feComposite in2="hardAlpha" operator="arithmetic" k2="-1" k3="1"/>
<feColorMatrix type="matrix" values="0 0 0 0 1 0 0 0 0 1 0 0 0 0 1 0 0 0 1 0"/>
<feBlend mode="normal" in2="effect1_innerShadow_9403_641" result="effect2_innerShadow_9403_641"/>
</filter>
<radialGradient id="paint0_radial_9403_641" cx="0" cy="0" r="1" gradientUnits="userSpaceOnUse" gradientTransform="translate(33.442 24.3584) rotate(132.136) scale(11.1308 11.1308)">
<stop stop-color="#FFF72C"/>
<stop offset="1" stop-color="#DF7800"/>
</radialGradient>
<linearGradient id="paint1_linear_9403_641" x1="25.8101" y1="49.6486" x2="46.5919" y2="26.326" gradientUnits="userSpaceOnUse">
<stop stop-color="#254659"/>
<stop offset="1" stop-color="#023553"/>
</linearGradient>
</defs>
</svg>
