<svg width="24" height="24" viewBox="0 0 24 24" fill="none" xmlns="http://www.w3.org/2000/svg">
<path d="M5 4.50004C5 3.83699 5.24583 3.20109 5.68342 2.73224C6.121 2.2634 6.71449 2 7.33333 2H16.6667C17.2855 2 17.879 2.2634 18.3166 2.73224C18.7542 3.20109 19 3.83699 19 4.50004V21.3753C18.9999 21.4884 18.9713 21.5993 18.917 21.6963C18.8628 21.7932 18.785 21.8726 18.692 21.926C18.599 21.9794 18.4942 22.0047 18.3888 21.9993C18.2834 21.9939 18.1813 21.958 18.0935 21.8953L12 18.3765L5.9065 21.8953C5.81866 21.958 5.7166 21.9939 5.61121 21.9993C5.50581 22.0047 5.40102 21.9794 5.308 21.926C5.21498 21.8726 5.1372 21.7932 5.08297 21.6963C5.02873 21.5993 5.00005 21.4884 5 21.3753V4.50004ZM7.33333 3.25002C7.02391 3.25002 6.72717 3.38172 6.50838 3.61614C6.28958 3.85057 6.16667 4.16851 6.16667 4.50004V20.2078L11.6768 17.1052C11.7726 17.037 11.885 17.0006 12 17.0006C12.115 17.0006 12.2274 17.037 12.3232 17.1052L17.8333 20.2078V4.50004C17.8333 4.16851 17.7104 3.85057 17.4916 3.61614C17.2728 3.38172 16.9761 3.25002 16.6667 3.25002H7.33333Z" fill="#8A91AB"/>
</svg>
