<svg xmlns="http://www.w3.org/2000/svg" style="display: none;">

  <!-- Bookmark icons -->
  <symbol id="bookmark-back" viewBox="0 0 24 24">
    <svg width="24" height="24" viewBox="0 0 24 24" fill="none" xmlns="http://www.w3.org/2000/svg"><path d="M5 4.50004C5 3.83699 5.24583 3.20109 5.68342 2.73224C6.121 2.2634 6.71449 2 7.33333 2H16.6667C17.2855 2 17.879 2.2634 18.3166 2.73224C18.7542 3.20109 19 3.83699 19 4.50004V21.3753C18.9999 21.4884 18.9713 21.5993 18.917 21.6963C18.8628 21.7932 18.785 21.8726 18.692 21.926C18.599 21.9794 18.4942 22.0047 18.3888 21.9993C18.2834 21.9939 18.1813 21.958 18.0935 21.8953L12 18.3765L5.9065 21.8953C5.81866 21.958 5.7166 21.9939 5.61121 21.9993C5.50581 22.0047 5.40102 21.9794 5.308 21.926C5.21498 21.8726 5.1372 21.7932 5.08297 21.6963C5.02873 21.5993 5.00005 21.4884 5 21.3753V4.50004ZM7.33333 3.25002C7.02391 3.25002 6.72717 3.38172 6.50838 3.61614C6.28958 3.85057 6.16667 4.16851 6.16667 4.50004V20.2078L11.6768 17.1052C11.7726 17.037 11.885 17.0006 12 17.0006C12.115 17.0006 12.2274 17.037 12.3232 17.1052L17.8333 20.2078V4.50004C17.8333 4.16851 17.7104 3.85057 17.4916 3.61614C17.2728 3.38172 16.9761 3.25002 16.6667 3.25002H7.33333Z" fill="#8A91AB"/></svg>
  </symbol>
  <symbol id="bookmark" viewBox="0 0 40 40">
    <svg width="40" height="40" viewBox="0 0 40 40" fill="none" xmlns="http://www.w3.org/2000/svg"><path d="M8.33325 7.50007C8.33325 6.39498 8.74297 5.33516 9.47228 4.55374C10.2016 3.77233 11.1907 3.33334 12.2221 3.33334L27.7777 3.33334C28.8091 3.33334 29.7983 3.77233 30.5276 4.55374C31.2569 5.33516 31.6666 6.39498 31.6666 7.50007V35.6255C31.6665 35.8139 31.6187 35.9988 31.5283 36.1604C31.4379 36.3221 31.3083 36.4544 31.1533 36.5433C30.9982 36.6323 30.8236 36.6745 30.6479 36.6655C30.4723 36.6565 30.3022 36.5966 30.1558 36.4922L19.9999 30.6275L9.84409 36.4922C9.69768 36.5966 9.52759 36.6565 9.35193 36.6655C9.17627 36.6745 9.00162 36.6323 8.84658 36.5433C8.69155 36.4544 8.56193 36.3221 8.47153 36.1604C8.38113 35.9988 8.33334 35.8139 8.33325 35.6255V7.50007ZM12.2221 5.4167C11.7064 5.4167 11.2119 5.6362 10.8472 6.02691C10.4826 6.41761 10.2777 6.94753 10.2777 7.50007V33.6797L19.4613 28.5087C19.6209 28.395 19.8083 28.3343 19.9999 28.3343C20.1916 28.3343 20.379 28.395 20.5385 28.5087L29.7221 33.6797V7.50007C29.7221 6.94753 29.5173 6.41761 29.1526 6.02691C28.788 5.6362 28.2934 5.4167 27.7777 5.4167H12.2221Z" fill="#8A91AB"/></svg>
  </symbol>
  <symbol id="bookmark-fill" viewBox="0 0 24 24">
    <svg width="24" height="24" viewBox="0 0 24 24" fill="none" xmlns="http://www.w3.org/2000/svg"><path d="M5 4.50004C5 3.83699 5.24583 3.20109 5.68342 2.73224C6.121 2.2634 6.71449 2 7.33333 2H16.6667C17.2855 2 17.879 2.2634 18.3166 2.73224C18.7542 3.20109 19 3.83699 19 4.50004V21.3753C18.9999 21.4884 18.9713 21.5993 18.917 21.6963C18.8628 21.7932 18.785 21.8726 18.692 21.926C18.599 21.9794 18.4942 22.0047 18.3888 21.9993C18.2834 21.9939 18.1813 21.958 18.0935 21.8953L12 18.3765L5.9065 21.8953C5.81866 21.958 5.7166 21.9939 5.61121 21.9993C5.50581 22.0047 5.40102 21.9794 5.308 21.926C5.21498 21.8726 5.1372 21.7932 5.08297 21.6963C5.02873 21.5993 5.00005 21.4884 5 21.3753V4.50004ZM7.33333 3.25002C7.02391 3.25002 6.72717 3.38172 6.50838 3.61614C6.28958 3.85057 6.16667 4.16851 6.16667 4.50004V20.2078L11.6768 17.1052C11.7726 17.037 11.885 17.0006 12 17.0006C12.115 17.0006 12.2274 17.037 12.3232 17.1052L17.8333 20.2078V4.50004C17.8333 4.16851 17.7104 3.85057 17.4916 3.61614C17.2728 3.38172 16.9761 3.25002 16.6667 3.25002H7.33333Z" fill="#8A91AB"/><path d="M7.33333 3.25002C7.02391 3.25002 6.72717 3.38172 6.50838 3.61614C6.28958 3.85057 6.16667 4.16851 6.16667 4.50004V20.2078L11.6768 17.1052C11.7726 17.037 11.885 17.0006 12 17.0006C12.115 17.0006 12.2274 17.037 12.3232 17.1052L17.8333 20.2078V4.50004C17.8333 4.16851 17.7104 3.85057 17.4916 3.61614C17.2728 3.38172 16.9761 3.25002 16.6667 3.25002H7.33333Z" fill="#8A91AB"/></svg>
  </symbol>
  <symbol id="chevron-left" viewBox="0 0 24 24">
    <svg width="24" height="24" viewBox="0 0 24 24" fill="none" xmlns="http://www.w3.org/2000/svg"><path d="M15.5348 3.515L7.0498 12L15.5348 20.485L16.9498 19.071L9.8778 12L16.9498 4.929L15.5348 3.515Z" fill="#8A91AB"/></svg>
  </symbol>
  <symbol id="arrow" viewBox="0 0 24 24">
    <svg width="38" height="32" viewBox="0 0 38 32" fill="none" xmlns="http://www.w3.org/2000/svg"><path fill-rule="evenodd" clip-rule="evenodd" d="M3.60008 3.7C3.76576 3.47909 4.07916 3.43431 4.30008 3.6L7.90008 6.3C8.12099 6.46568 8.16576 6.77908 8.00008 7C7.83439 7.22091 7.52099 7.26568 7.30008 7.1L4.69332 5.14493C7.69859 21.5076 22.9713 29.4042 35.909 27.0084L36.0911 27.9916C22.6497 30.4808 6.77066 22.2626 3.69429 5.24105L1.70008 7.9C1.53439 8.12091 1.22099 8.16568 1.00008 8C0.779164 7.83431 0.734393 7.52091 0.900078 7.3L3.60008 3.7Z" fill="#8A91AB" /></svg>
  </symbol>

  <!-- Weather icons -->
  <symbol id="barometer" viewBox="0 0 24 24">
    <svg width="24" height="24" viewBox="0 0 24 24" fill="none" xmlns="http://www.w3.org/2000/svg"><g clip-path="url(#clip0_140_9)"><ellipse cx="12.0002" cy="13" rx="10.8" ry="10.8" fill="#494F68"/><path d="M14.1665 14.1053C14.3406 13.7656 14.4334 13.3874 14.4334 12.9948C14.4334 11.6471 13.3427 10.5562 11.9948 10.5562C11.602 10.5562 11.224 10.649 10.8843 10.8231L8.28098 8.21982C7.98788 7.92673 7.51277 7.92673 7.21982 8.21982C6.92673 8.51277 6.92673 8.98788 7.21982 9.28098L9.8231 11.8843C9.649 12.224 9.55624 12.6022 9.55624 12.9948C9.55624 14.3425 10.6468 15.4334 11.9948 15.4334C12.3875 15.4334 12.7656 15.3406 13.1053 15.1665L13.7191 15.7802C14.012 16.0732 14.4873 16.0733 14.7802 15.7802C15.0733 15.4873 15.0733 15.0122 14.7802 14.7191L14.1665 14.1053ZM11.9948 13.9327C11.4765 13.9327 11.0569 13.5133 11.0569 12.9948C11.0569 12.4782 11.4756 12.0569 11.9948 12.0569C12.5131 12.0569 12.9327 12.4763 12.9327 12.9948C12.9327 13.5114 12.514 13.9327 11.9948 13.9327Z" fill="white"/></g><defs><clipPath id="clip0_140_9"><rect width="24" height="24" fill="white"/></clipPath></defs></svg>
  </symbol>
  <symbol id="weather-clear" viewBox="0 0 24 24">
    <svg width="200" height="200" viewBox="0 0 200 200" fill="none" xmlns="http://www.w3.org/2000/svg"><g filter="url(#filter0_d_1506_805)"><path d="M99.5899 151.165C128.074 151.165 151.165 128.074 151.165 99.5899C151.165 71.1056 128.074 48.0144 99.5899 48.0144C71.1056 48.0144 48.0144 71.1056 48.0144 99.5899C48.0144 128.074 71.1056 151.165 99.5899 151.165Z" fill="#FA9E42"/></g><path fill-rule="evenodd" clip-rule="evenodd" d="M99.0186 30.0023C99.2089 30.0008 99.3993 30 99.5899 30C99.7805 30 99.971 30.0008 100.161 30.0023C102.923 30.0245 105.143 32.2811 105.121 35.0424C105.099 37.8037 102.842 40.0242 100.081 40.002C99.9173 40.0007 99.7537 40 99.5899 40C99.4262 40 99.2626 40.0007 99.0992 40.002C96.3378 40.0242 94.0813 37.8037 94.0591 35.0424C94.0368 32.2811 96.2573 30.0245 99.0186 30.0023ZM127.083 40.9127C128.447 38.5112 131.499 37.6697 133.9 39.033C134.23 39.2205 134.559 39.4106 134.886 39.6033C137.264 41.0057 138.056 44.071 136.653 46.4498C135.251 48.8286 132.186 49.62 129.807 48.2176C129.527 48.0526 129.246 47.8898 128.963 47.7293C126.562 46.366 125.72 43.3141 127.083 40.9127ZM72.0965 40.9127C73.4598 43.3141 72.6183 46.366 70.2168 47.7293C69.9341 47.8898 69.6528 48.0526 69.373 48.2176C66.9942 49.62 63.9289 48.8286 62.5265 46.4498C61.124 44.071 61.9155 41.0057 64.2942 39.6033C64.6211 39.4106 64.9496 39.2205 65.2799 39.033C67.6813 37.6697 70.7332 38.5112 72.0965 40.9127ZM152.73 62.5265C155.109 61.124 158.174 61.9155 159.577 64.2942C159.769 64.6211 159.959 64.9496 160.147 65.2799C161.51 67.6813 160.669 70.7332 158.267 72.0965C155.866 73.4598 152.814 72.6183 151.451 70.2168C151.29 69.9341 151.127 69.6528 150.962 69.373C149.56 66.9942 150.351 63.9289 152.73 62.5265ZM46.4498 62.5265C48.8286 63.9289 49.62 66.9942 48.2176 69.373C48.0526 69.6528 47.8898 69.9341 47.7293 70.2169C46.366 72.6183 43.3141 73.4598 40.9127 72.0965C38.5112 70.7332 37.6697 67.6813 39.033 65.2799C39.2205 64.9496 39.4106 64.6211 39.6033 64.2943C41.0057 61.9155 44.071 61.124 46.4498 62.5265ZM164.137 94.0591C166.899 94.0368 169.155 96.2573 169.178 99.0186C169.179 99.2089 169.18 99.3993 169.18 99.5899C169.18 99.7805 169.179 99.971 169.178 100.161C169.155 102.923 166.899 105.143 164.137 105.121C161.376 105.099 159.156 102.842 159.178 100.081C159.179 99.9173 159.18 99.7537 159.18 99.5899C159.18 99.4262 159.179 99.2626 159.178 99.0992C159.156 96.3378 161.376 94.0813 164.137 94.0591ZM35.0424 94.0591C37.8037 94.0813 40.0242 96.3378 40.002 99.0992C40.0007 99.2626 40 99.4262 40 99.5899C40 99.7537 40.0007 99.9173 40.002 100.081C40.0242 102.842 37.8037 105.099 35.0424 105.121C32.2811 105.143 30.0245 102.923 30.0023 100.161C30.0008 99.971 30 99.7805 30 99.5899C30 99.3993 30.0008 99.2089 30.0023 99.0186C30.0245 96.2573 32.2811 94.0368 35.0424 94.0591ZM158.267 127.083C160.669 128.447 161.51 131.499 160.147 133.9C159.959 134.23 159.769 134.559 159.577 134.886C158.174 137.264 155.109 138.056 152.73 136.653C150.351 135.251 149.56 132.186 150.962 129.807C151.127 129.527 151.29 129.246 151.451 128.963C152.814 126.562 155.866 125.72 158.267 127.083ZM40.9127 127.083C43.3141 125.72 46.366 126.562 47.7293 128.963C47.8898 129.246 48.0526 129.527 48.2176 129.807C49.62 132.186 48.8286 135.251 46.4498 136.653C44.071 138.056 41.0057 137.264 39.6033 134.886C39.4106 134.559 39.2205 134.23 39.033 133.9C37.6697 131.499 38.5112 128.447 40.9127 127.083ZM136.653 152.73C138.056 155.109 137.264 158.174 134.886 159.577C134.559 159.769 134.23 159.959 133.9 160.147C131.499 161.51 128.447 160.669 127.083 158.267C125.72 155.866 126.562 152.814 128.963 151.451C129.246 151.29 129.527 151.127 129.807 150.962C132.186 149.56 135.251 150.351 136.653 152.73ZM62.5265 152.73C63.9289 150.351 66.9942 149.56 69.373 150.962C69.6528 151.127 69.9341 151.29 70.2169 151.451C72.6183 152.814 73.4598 155.866 72.0965 158.267C70.7332 160.669 67.6813 161.51 65.2799 160.147C64.9496 159.959 64.6211 159.769 64.2943 159.577C61.9155 158.174 61.124 155.109 62.5265 152.73ZM94.0591 164.137C94.0813 161.376 96.3378 159.156 99.0992 159.178C99.2626 159.179 99.4262 159.18 99.5899 159.18C99.7537 159.18 99.9173 159.179 100.081 159.178C102.842 159.156 105.099 161.376 105.121 164.137C105.143 166.899 102.923 169.155 100.161 169.178C99.971 169.179 99.7805 169.18 99.5899 169.18C99.4976 169.18 99.4054 169.18 99.3131 169.179C99.2149 169.179 99.1168 169.178 99.0186 169.178C96.2573 169.155 94.0368 166.899 94.0591 164.137Z" fill="#FA9E42"/><g filter="url(#filter1_f_1506_805)"><path d="M96.0023 93.1149C114.044 83.532 124.25 67.4419 118.798 57.1767C113.346 46.9116 94.2998 46.3585 76.2578 55.9414C58.2158 65.5243 48.0098 81.6143 53.4621 91.8795C58.9144 102.145 77.9603 102.698 96.0023 93.1149Z" fill="#F8E36F"/></g><defs><filter id="filter0_d_1506_805" x="28.0144" y="20.0144" width="163.151" height="163.151" filterUnits="userSpaceOnUse" color-interpolation-filters="sRGB"><feFlood flood-opacity="0" result="BackgroundImageFix"/><feColorMatrix in="SourceAlpha" type="matrix" values="0 0 0 0 0 0 0 0 0 0 0 0 0 0 0 0 0 0 127 0" result="hardAlpha"/><feOffset dx="10" dy="2"/><feGaussianBlur stdDeviation="15"/><feColorMatrix type="matrix" values="0 0 0 0 0 0 0 0 0 0 0 0 0 0 0 0 0 0 0.25 0"/><feBlend mode="normal" in2="BackgroundImageFix" result="effect1_dropShadow_1506_805"/><feBlend mode="normal" in="SourceGraphic" in2="effect1_dropShadow_1506_805" result="shape"/></filter><filter id="filter1_f_1506_805" x="31.994" y="29.1009" width="108.272" height="90.8544" filterUnits="userSpaceOnUse" color-interpolation-filters="sRGB"><feFlood flood-opacity="0" result="BackgroundImageFix"/><feBlend mode="normal" in="SourceGraphic" in2="BackgroundImageFix" result="shape"/><feGaussianBlur stdDeviation="10" result="effect1_foregroundBlur_1506_805"/></filter></defs></svg>
  </symbol>
  <symbol id="weather-clouds" viewBox="0 0 24 24"> 
    <svg width="249" height="200" viewBox="0 0 249 200" fill="none" xmlns="http://www.w3.org/2000/svg"><g filter="url(#filter0_d_1506_810)"><path d="M160.244 158.694H58.2972C48.4075 158.686 38.9041 154.853 31.7765 147.997C24.6489 141.141 20.4497 131.794 20.058 121.912C19.6663 112.03 23.1125 102.38 29.6751 94.9814C36.2377 87.5828 45.4079 83.0097 55.2659 82.2194C56.6717 72.2927 61.1544 63.0565 68.0832 55.8102C75.012 48.564 84.0383 43.6723 93.8921 41.8235C103.746 39.9747 113.932 41.2618 123.016 45.5037C132.1 49.7455 139.626 56.7287 144.534 65.4707C153.537 62.3543 163.264 61.9901 172.474 64.4246C181.685 66.8591 189.961 71.9819 196.248 79.1397C202.535 86.2974 206.548 95.1656 207.774 104.613C209 114.061 207.384 123.659 203.133 132.185C200.638 139.888 195.767 146.603 189.218 151.365C182.67 156.128 174.781 158.694 166.684 158.694H160.244Z" fill="url(#paint0_linear_1506_810)"/><path d="M166.684 158.161C170.796 158.161 174.838 157.504 178.699 156.21C182.433 154.958 185.938 153.131 189.117 150.78C192.26 148.455 195.015 145.671 197.305 142.504C199.624 139.298 201.414 135.771 202.626 132.021L202.639 131.983L202.657 131.946C204.268 128.726 205.509 125.319 206.345 121.82C207.206 118.22 207.642 114.5 207.642 110.764C207.642 107.548 207.318 104.334 206.679 101.211C206.056 98.1683 205.127 95.1752 203.917 92.3151C202.73 89.5067 201.259 86.798 199.548 84.2642C197.852 81.7543 195.905 79.3942 193.76 77.2492C191.615 75.1042 189.254 73.1569 186.745 71.4613C184.211 69.7494 181.502 68.2792 178.694 67.0914C175.834 65.8816 172.84 64.9525 169.798 64.3298C166.675 63.6908 163.461 63.3668 160.245 63.3668C154.92 63.3668 149.692 64.2433 144.709 65.9717L144.288 66.1175L144.07 65.7296C140.014 58.5179 134.115 52.4614 127.009 48.2149C123.416 46.0673 119.555 44.4078 115.535 43.2824C111.387 42.1212 107.078 41.5325 102.729 41.5325C96.8793 41.5325 91.1689 42.5854 85.7566 44.6618C80.5279 46.6678 75.7315 49.5654 71.5004 53.2742C67.2937 56.9617 63.8027 61.3126 61.1243 66.206C58.3801 71.2196 56.5865 76.6315 55.7934 82.2913L55.7341 82.7149L55.3076 82.7483C50.5369 83.1217 45.9469 84.3778 41.6651 86.4815C37.5046 88.5257 33.7894 91.2906 30.6228 94.6994C24.116 101.704 20.5326 110.83 20.5326 120.396C20.5326 125.495 21.531 130.44 23.5001 135.096C24.4465 137.333 25.6179 139.492 26.9819 141.51C28.3329 143.51 29.8845 145.391 31.5936 147.1C33.3026 148.809 35.1832 150.361 37.183 151.712C39.2019 153.075 41.3601 154.247 43.5977 155.193C48.2531 157.162 53.1987 158.161 58.2971 158.161H160.245H166.684ZM166.684 158.693H160.245H58.2971C37.1463 158.693 20 141.547 20 120.396C20 100.265 35.5316 83.7621 55.266 82.2174C58.5303 58.9242 78.5364 41 102.729 41C120.677 41 136.321 50.8645 144.534 65.4686C149.456 63.7616 154.742 62.8343 160.245 62.8343C186.716 62.8343 208.174 84.2933 208.174 110.764C208.174 118.463 206.359 125.739 203.133 132.185C198.162 147.568 183.722 158.693 166.684 158.693Z" fill="white" fill-opacity="0.5"/></g><defs><filter id="filter0_d_1506_810" x="0" y="13" width="248.174" height="177.694" filterUnits="userSpaceOnUse" color-interpolation-filters="sRGB"><feFlood flood-opacity="0" result="BackgroundImageFix"/><feColorMatrix in="SourceAlpha" type="matrix" values="0 0 0 0 0 0 0 0 0 0 0 0 0 0 0 0 0 0 127 0" result="hardAlpha"/><feOffset dx="10" dy="2"/><feGaussianBlur stdDeviation="15"/><feColorMatrix type="matrix" values="0 0 0 0 0 0 0 0 0 0 0 0 0 0 0 0 0 0 0.25 0"/><feBlend mode="normal" in2="BackgroundImageFix" result="effect1_dropShadow_1506_810"/><feBlend mode="normal" in="SourceGraphic" in2="effect1_dropShadow_1506_810" result="shape"/></filter><linearGradient id="paint0_linear_1506_810" x1="114.1" y1="41.0014" x2="168.763" y2="173.161" gradientUnits="userSpaceOnUse"><stop stop-color="white" stop-opacity="0.604"/><stop offset="1" stop-color="white" stop-opacity="0.2"/></linearGradient></defs></svg>
  </symbol>
  <symbol id="weather-rain" viewBox="0 0 24 24">
    <svg width="249" height="204" viewBox="0 0 249 204" fill="none" xmlns="http://www.w3.org/2000/svg"><path d="M61.6263 151.552C62.4784 151.561 71.1153 165.047 71.1153 170.288C71.1153 172.805 70.1156 175.218 68.336 176.998C66.5565 178.777 64.143 179.777 61.6263 179.777C59.1097 179.777 56.6961 178.777 54.9166 176.998C53.1371 175.218 52.1373 172.805 52.1373 170.288C52.1373 165.048 60.7748 151.542 61.6263 151.552Z" fill="#42A0F0"/><path d="M54.3918 173.834C55.3399 174.124 56.5449 172.932 57.0833 171.171C57.6216 169.411 57.2893 167.748 56.3412 167.458C55.393 167.168 54.188 168.361 53.6497 170.122C53.1114 171.882 53.4436 173.545 54.3918 173.834Z" fill="white"/><path d="M111.154 151.552C112.006 151.561 120.643 165.047 120.643 170.288C120.643 172.805 119.643 175.218 117.863 176.998C116.084 178.777 113.67 179.777 111.154 179.777C108.637 179.777 106.223 178.777 104.444 176.998C102.664 175.218 101.665 172.805 101.665 170.288C101.665 165.048 110.302 151.542 111.154 151.552Z" fill="#42A0F0"/><path d="M103.919 173.834C104.867 174.124 106.072 172.932 106.61 171.171C107.149 169.411 106.817 167.748 105.868 167.458C104.92 167.168 103.715 168.361 103.177 170.122C102.639 171.882 102.971 173.545 103.919 173.834Z" fill="white"/><path d="M160.681 151.552C161.533 151.561 170.17 165.047 170.17 170.288C170.17 172.805 169.17 175.218 167.39 176.998C165.611 178.777 163.197 179.777 160.681 179.777C158.164 179.777 155.751 178.777 153.971 176.998C152.192 175.218 151.192 172.805 151.192 170.288C151.192 165.048 159.829 151.542 160.681 151.552Z" fill="#42A0F0"/><path d="M153.446 173.834C154.394 174.124 155.599 172.932 156.138 171.171C156.676 169.411 156.344 167.748 155.396 167.458C154.447 167.168 153.242 168.361 152.704 170.122C152.166 171.882 152.498 173.545 153.446 173.834Z" fill="white"/><path d="M86.6562 110.013C87.5083 110.022 96.1452 123.508 96.1452 128.749C96.1452 131.266 95.1455 133.679 93.366 135.459C91.5864 137.238 89.1729 138.238 86.6562 138.238C84.1396 138.238 81.726 137.238 79.9465 135.459C78.167 133.679 77.1672 131.266 77.1672 128.749C77.1672 123.509 85.8047 110.003 86.6562 110.013Z" fill="#42A0F0"/><path d="M79.4216 132.296C80.3698 132.585 81.5748 131.393 82.1131 129.632C82.6514 127.872 82.3192 126.209 81.371 125.919C80.4229 125.629 79.2178 126.822 78.6795 128.583C78.1412 130.343 78.4735 132.006 79.4216 132.296Z" fill="white"/><path d="M138.846 110.013C139.698 110.022 148.335 123.508 148.335 128.749C148.335 131.266 147.335 133.679 145.556 135.459C143.776 137.238 141.363 138.238 138.846 138.238C136.33 138.238 133.916 137.238 132.136 135.459C130.357 133.679 129.357 131.266 129.357 128.749C129.357 123.509 137.995 110.003 138.846 110.013Z" fill="#42A0F0"/><path d="M131.612 132.296C132.56 132.585 133.765 131.393 134.303 129.632C134.841 127.872 134.509 126.209 133.561 125.919C132.613 125.629 131.408 126.822 130.869 128.583C130.331 130.343 130.663 132.006 131.612 132.296Z" fill="white"/><g filter="url(#filter0_d_1506_808)"><path d="M160.245 145.694H58.2973C48.4076 145.686 38.9043 141.853 31.7767 134.997C24.649 128.141 20.4499 118.794 20.0582 108.912C19.6665 99.0303 23.1126 89.3799 29.6752 81.9814C36.2378 74.5828 45.408 70.0097 55.2661 69.2195C56.6719 59.2927 61.1545 50.0565 68.0833 42.8103C75.0121 35.564 84.0384 30.6724 93.8922 28.8236C103.746 26.9748 113.932 28.2618 123.016 32.5037C132.1 36.7455 139.626 43.7287 144.534 52.4707C153.537 49.3543 163.264 48.9901 172.475 51.4248C181.686 53.8595 189.962 58.9825 196.249 66.1406C202.536 73.2986 206.549 82.1672 207.774 91.615C209 101.063 207.384 110.662 203.132 119.187C200.637 126.89 195.765 133.604 189.217 138.366C182.669 143.128 174.781 145.693 166.684 145.694H160.245Z" fill="url(#paint0_linear_1506_808)"/><path d="M166.684 145.161C170.795 145.161 174.837 144.504 178.698 143.21C182.431 141.958 185.936 140.131 189.115 137.78C192.258 135.456 195.013 132.672 197.303 129.505C199.622 126.299 201.413 122.773 202.625 119.023L202.638 118.985L202.656 118.949C204.268 115.728 205.509 112.32 206.345 108.822C207.206 105.221 207.642 101.501 207.642 97.7639C207.642 94.5477 207.318 91.3338 206.679 88.2112C206.056 85.1683 205.127 82.1752 203.917 79.3151C202.729 76.5067 201.259 73.798 199.547 71.2642C197.852 68.7544 195.904 66.3942 193.759 64.2492C191.614 62.1043 189.254 60.1569 186.744 58.4613C184.211 56.7495 181.502 55.2792 178.694 54.0914C175.833 52.8816 172.84 51.9525 169.797 51.3298C166.675 50.6908 163.461 50.3669 160.245 50.3669C154.919 50.3669 149.692 51.2432 144.709 52.9717L144.288 53.1175L144.07 52.7296C140.014 45.5178 134.115 39.4614 127.009 35.2149C123.416 33.0673 119.555 31.4078 115.535 30.2823C111.387 29.1213 107.078 28.5326 102.729 28.5326C96.8793 28.5326 91.1689 29.5854 85.7566 31.6618C80.5279 33.6678 75.7315 36.5654 71.5004 40.2742C67.2937 43.9617 63.8027 48.3126 61.1243 53.2061C58.3801 58.2197 56.5865 63.6315 55.7934 69.2913L55.7341 69.7149L55.3076 69.7483C50.5369 70.1217 45.9469 71.3778 41.6651 73.4815C37.5046 75.5257 33.7894 78.2906 30.6228 81.6994C24.116 88.7038 20.5326 97.8298 20.5326 107.396C20.5326 112.495 21.531 117.44 23.5001 122.096C24.4465 124.333 25.6179 126.492 26.9819 128.51C28.3329 130.51 29.8845 132.391 31.5936 134.1C33.3026 135.809 35.1832 137.361 37.183 138.712C39.2019 140.076 41.3601 141.247 43.5977 142.193C48.2531 144.162 53.1987 145.161 58.2971 145.161H160.245H166.684ZM166.684 145.693H160.245H58.2971C37.1463 145.693 20 128.547 20 107.396C20 87.2653 35.5316 70.7621 55.266 69.2174C58.5303 45.9243 78.5364 28 102.729 28C120.677 28 136.321 37.8645 144.534 52.4685C149.456 50.7615 154.742 49.8343 160.245 49.8343C186.715 49.8343 208.174 71.2933 208.174 97.7639C208.174 105.464 206.359 112.74 203.132 119.187C198.159 134.568 183.721 145.693 166.684 145.693Z" fill="white" fill-opacity="0.5"/></g><defs><filter id="filter0_d_1506_808" x="0" y="0" width="248.174" height="177.694" filterUnits="userSpaceOnUse" color-interpolation-filters="sRGB"><feFlood flood-opacity="0" result="BackgroundImageFix"/><feColorMatrix in="SourceAlpha" type="matrix" values="0 0 0 0 0 0 0 0 0 0 0 0 0 0 0 0 0 0 127 0" result="hardAlpha"/><feOffset dx="10" dy="2"/><feGaussianBlur stdDeviation="15"/><feColorMatrix type="matrix" values="0 0 0 0 0 0 0 0 0 0 0 0 0 0 0 0 0 0 0.25 0"/><feBlend mode="normal" in2="BackgroundImageFix" result="effect1_dropShadow_1506_808"/><feBlend mode="normal" in="SourceGraphic" in2="effect1_dropShadow_1506_808" result="shape"/></filter><linearGradient id="paint0_linear_1506_808" x1="114.101" y1="28.0014" x2="168.763" y2="160.161" gradientUnits="userSpaceOnUse"><stop stop-color="white" stop-opacity="0.604"/><stop offset="1" stop-color="white" stop-opacity="0.2"/></linearGradient></defs></svg>
  </symbol>
  <symbol id="weather-snow" viewBox="0 0 24 24">
    <svg width="249" height="209" viewBox="0 0 249 209" fill="none" xmlns="http://www.w3.org/2000/svg"><path fill-rule="evenodd" clip-rule="evenodd" d="M75.6951 111.521C76.8562 110.804 78.3847 111.162 79.109 112.321L114.621 169.141C115.345 170.3 114.991 171.82 113.83 172.537C112.669 173.253 111.141 172.895 110.416 171.736L74.9041 114.916C74.1798 113.758 74.5339 112.237 75.6951 111.521Z" fill="#42A0F0"/><path fill-rule="evenodd" clip-rule="evenodd" d="M89.9611 108.942C91.2762 109.276 92.0696 110.63 91.7332 111.966L87.6501 128.184C87.3136 129.52 85.9747 130.333 84.6596 129.999C83.3444 129.665 82.551 128.311 82.8875 126.974L86.9706 110.757C87.307 109.42 88.6459 108.608 89.9611 108.942Z" fill="#42A0F0"/><path fill-rule="evenodd" clip-rule="evenodd" d="M66.7494 123.584C67.0163 122.232 68.3117 121.349 69.6427 121.613L86.0576 124.861C87.3885 125.125 88.2511 126.434 87.9841 127.786C87.7172 129.138 86.4218 130.021 85.0908 129.758L68.6759 126.509C67.345 126.246 66.4824 124.936 66.7494 123.584Z" fill="#42A0F0"/><path fill-rule="evenodd" clip-rule="evenodd" d="M102.112 157.632C102.4 156.284 103.709 155.422 105.035 155.707L121.134 159.163C122.461 159.448 123.303 160.771 123.015 162.119C122.727 163.467 121.418 164.328 120.092 164.044L103.992 160.588C102.666 160.303 101.824 158.979 102.112 157.632Z" fill="#42A0F0"/><path fill-rule="evenodd" clip-rule="evenodd" d="M105.47 155.473C106.779 155.828 107.551 157.195 107.194 158.526L102.788 174.941C102.431 176.272 101.08 177.063 99.77 176.707C98.4603 176.352 97.6883 174.985 98.0455 173.655L102.451 157.24C102.809 155.909 104.16 155.118 105.47 155.473Z" fill="#42A0F0"/><path fill-rule="evenodd" clip-rule="evenodd" d="M111.735 110.442C112.874 111.046 113.244 112.576 112.562 113.859L81.1111 173.023C80.4288 174.307 78.9523 174.858 77.8132 174.254C76.6742 173.651 76.3039 172.121 76.9863 170.837L108.437 111.673C109.12 110.389 110.596 109.838 111.735 110.442Z" fill="#42A0F0"/><path fill-rule="evenodd" clip-rule="evenodd" d="M120.83 121.112C121.115 122.453 120.291 123.9 118.99 124.344L103.209 129.74C101.908 130.184 100.623 129.458 100.338 128.118C100.053 126.778 100.877 125.331 102.178 124.886L117.959 119.491C119.26 119.046 120.545 119.772 120.83 121.112Z" fill="#42A0F0"/><path fill-rule="evenodd" clip-rule="evenodd" d="M97.226 108.693C98.5035 108.154 99.8443 108.776 100.221 110.081L104.866 126.191C105.242 127.496 104.511 128.991 103.234 129.53C101.956 130.068 100.616 129.447 100.239 128.141L95.5943 112.032C95.2179 110.726 95.9484 109.231 97.226 108.693Z" fill="#42A0F0"/><path fill-rule="evenodd" clip-rule="evenodd" d="M85.4143 156.341C86.6976 155.824 88.0266 156.469 88.3827 157.782L92.7023 173.717C93.0584 175.031 92.3067 176.516 91.0233 177.034C89.74 177.552 88.411 176.906 88.0548 175.593L83.7353 159.658C83.3792 158.344 84.1309 156.859 85.4143 156.341Z" fill="#42A0F0"/><path fill-rule="evenodd" clip-rule="evenodd" d="M88.2832 157.803C88.5475 159.15 87.7035 160.586 86.3982 161.009L70.2885 166.236C68.9831 166.659 67.7107 165.911 67.4464 164.564C67.1822 163.216 68.0261 161.781 69.3315 161.358L85.4412 156.131C86.7465 155.708 88.019 156.456 88.2832 157.803Z" fill="#42A0F0"/><path fill-rule="evenodd" clip-rule="evenodd" d="M130.322 141.264C130.284 142.727 129.206 143.951 127.915 143.996L60.9525 146.341C59.6615 146.386 58.6457 145.236 58.6837 143.772C58.7217 142.309 59.799 141.085 61.09 141.04L128.053 138.695C129.344 138.65 130.36 139.8 130.322 141.264Z" fill="#42A0F0"/><path fill-rule="evenodd" clip-rule="evenodd" d="M125.736 154.231C124.924 155.409 123.452 155.662 122.448 154.795L110.139 144.16C109.135 143.293 108.98 141.634 109.793 140.456C110.605 139.277 112.078 139.025 113.081 139.892L125.39 150.526C126.394 151.394 126.549 153.052 125.736 154.231Z" fill="#42A0F0"/><path fill-rule="evenodd" clip-rule="evenodd" d="M125.295 127.669C126.125 128.745 125.996 130.422 125.007 131.413L112.708 143.735C111.718 144.726 110.244 144.657 109.414 143.58C108.583 142.503 108.713 140.827 109.702 139.836L122.001 127.514C122.99 126.523 124.465 126.592 125.295 127.669Z" fill="#42A0F0"/><path fill-rule="evenodd" clip-rule="evenodd" d="M78.1041 141.271C78.9188 142.363 78.767 144.038 77.765 145.012L65.4783 156.962C64.4763 157.937 63.0036 157.842 62.1888 156.75C61.3741 155.658 61.5259 153.983 62.528 153.009L74.8146 141.059C75.8166 140.085 77.2893 140.18 78.1041 141.271Z" fill="#42A0F0"/><path fill-rule="evenodd" clip-rule="evenodd" d="M77.6917 144.398C76.8639 145.563 75.3892 145.79 74.3981 144.904L62.0764 133.899C61.0852 133.013 60.9528 131.351 61.7806 130.186C62.6085 129.021 64.0831 128.794 65.0743 129.679L77.396 140.685C78.3872 141.57 78.5196 143.232 77.6917 144.398Z" fill="#42A0F0"/><path fill-rule="evenodd" clip-rule="evenodd" d="M166.194 148.161C166.946 148.488 167.284 149.362 166.95 150.113L153.438 180.457C153.104 181.208 152.223 181.551 151.471 181.224C150.719 180.896 150.381 180.022 150.715 179.271L164.227 148.927C164.561 148.177 165.442 147.833 166.194 148.161Z" fill="#42A0F0"/><path fill-rule="evenodd" clip-rule="evenodd" d="M171.234 153.571C171.51 154.363 171.115 155.22 170.352 155.486L162.724 158.137C161.962 158.402 161.12 157.974 160.844 157.182C160.568 156.39 160.962 155.533 161.725 155.268L169.353 152.617C170.116 152.352 170.958 152.779 171.234 153.571Z" fill="#42A0F0"/><path fill-rule="evenodd" clip-rule="evenodd" d="M158.389 147.725C159.126 147.394 159.998 147.748 160.338 148.515L163.787 156.311C164.127 157.078 163.804 157.968 163.068 158.299C162.331 158.63 161.459 158.277 161.119 157.51L157.67 149.713C157.33 148.946 157.653 148.056 158.389 147.725Z" fill="#42A0F0"/><path fill-rule="evenodd" clip-rule="evenodd" d="M154.198 171.696C154.94 171.377 155.808 171.745 156.135 172.517L159.412 180.239C159.739 181.011 159.404 181.895 158.662 182.214C157.919 182.533 157.052 182.165 156.725 181.393L153.448 173.671C153.12 172.899 153.456 172.015 154.198 171.696Z" fill="#42A0F0"/><path fill-rule="evenodd" clip-rule="evenodd" d="M156.407 172.85C156.671 173.646 156.263 174.496 155.496 174.749L147.699 177.316C146.932 177.568 146.096 177.127 145.833 176.331C145.569 175.535 145.976 174.685 146.743 174.432L154.54 171.865C155.307 171.613 156.143 172.053 156.407 172.85Z" fill="#42A0F0"/><path fill-rule="evenodd" clip-rule="evenodd" d="M176.635 162.902C176.704 163.766 176.126 164.533 175.345 164.615L142.311 168.085C141.53 168.167 140.841 167.533 140.773 166.669C140.704 165.805 141.281 165.038 142.062 164.956L175.097 161.486C175.878 161.404 176.566 162.038 176.635 162.902Z" fill="#42A0F0"/><path fill-rule="evenodd" clip-rule="evenodd" d="M174.771 170.012C174.313 170.694 173.422 170.817 172.78 170.285L166.31 164.924C165.668 164.392 165.52 163.408 165.978 162.726C166.436 162.043 167.327 161.921 167.968 162.452L174.439 167.814C175.08 168.345 175.229 169.329 174.771 170.012Z" fill="#42A0F0"/><path fill-rule="evenodd" clip-rule="evenodd" d="M173.309 156.194C173.909 156.782 173.981 157.773 173.469 158.408L168.237 164.898C167.725 165.532 166.824 165.569 166.225 164.981C165.625 164.393 165.553 163.402 166.065 162.768L171.297 156.278C171.809 155.643 172.71 155.606 173.309 156.194Z" fill="#42A0F0"/><path fill-rule="evenodd" clip-rule="evenodd" d="M150.452 164.551C151.044 165.149 151.101 166.141 150.581 166.766L145.328 173.072C144.807 173.697 143.905 173.719 143.313 173.121C142.722 172.523 142.664 171.532 143.185 170.907L148.438 164.601C148.958 163.976 149.86 163.954 150.452 164.551Z" fill="#42A0F0"/><path fill-rule="evenodd" clip-rule="evenodd" d="M150.669 166.81C150.201 167.484 149.307 167.591 148.673 167.049L142.183 161.503C141.549 160.961 141.414 159.975 141.882 159.301C142.35 158.627 143.243 158.52 143.878 159.062L150.368 164.608C151.002 165.15 151.137 166.136 150.669 166.81Z" fill="#42A0F0"/><path fill-rule="evenodd" clip-rule="evenodd" d="M169.238 179.421C168.604 179.878 167.68 179.683 167.174 178.986L147.651 152.112C147.144 151.414 147.247 150.478 147.88 150.021C148.513 149.564 149.438 149.759 149.944 150.457L169.467 177.33C169.974 178.028 169.871 178.964 169.238 179.421Z" fill="#42A0F0"/><path fill-rule="evenodd" clip-rule="evenodd" d="M162.369 181.16C161.563 180.983 160.987 180.182 161.082 179.369L162.043 171.23C162.139 170.417 162.87 169.902 163.677 170.079C164.483 170.256 165.06 171.057 164.964 171.87L164.003 180.009C163.908 180.822 163.176 181.337 162.369 181.16Z" fill="#42A0F0"/><path fill-rule="evenodd" clip-rule="evenodd" d="M173.316 173.24C173.246 174.057 172.534 174.598 171.725 174.448L163.476 172.918C162.667 172.768 162.067 171.984 162.136 171.166C162.206 170.349 162.918 169.808 163.728 169.958L171.976 171.488C172.785 171.638 173.385 172.422 173.316 173.24Z" fill="#42A0F0"/><path fill-rule="evenodd" clip-rule="evenodd" d="M154.653 157.621C154.571 158.436 153.849 158.965 153.041 158.802L144.942 157.168C144.134 157.005 143.545 156.212 143.627 155.397C143.71 154.582 144.432 154.053 145.24 154.216L153.339 155.85C154.147 156.013 154.735 156.806 154.653 157.621Z" fill="#42A0F0"/><path fill-rule="evenodd" clip-rule="evenodd" d="M153.093 158.682C152.288 158.493 151.723 157.683 151.832 156.873L152.939 148.625C153.048 147.816 153.788 147.313 154.593 147.503C155.398 147.693 155.963 148.502 155.854 149.312L154.747 157.56C154.638 158.369 153.898 158.872 153.093 158.682Z" fill="#42A0F0"/><g filter="url(#filter0_d_1506_811)"><path d="M160.245 145.694H58.2973C48.4076 145.686 38.9043 141.853 31.7767 134.997C24.649 128.141 20.4499 118.794 20.0582 108.912C19.6665 99.0303 23.1126 89.3799 29.6752 81.9813C36.2378 74.5828 45.408 70.0097 55.2661 69.2194C56.6719 59.2927 61.1545 50.0565 68.0833 42.8102C75.0121 35.5639 84.0384 30.6723 93.8922 28.8235C103.746 26.9747 113.932 28.2618 123.016 32.5036C132.1 36.7455 139.626 43.7287 144.534 52.4707C153.537 49.3543 163.264 48.9901 172.474 51.4246C181.685 53.8591 189.962 58.9819 196.249 66.1397C202.536 73.2974 206.548 82.1656 207.774 91.6132C209 101.061 207.385 110.659 203.133 119.185C200.638 126.888 195.767 133.603 189.219 138.365C182.67 143.128 174.781 145.693 166.684 145.694H160.245Z" fill="url(#paint0_linear_1506_811)"/><path d="M166.684 145.161C170.796 145.161 174.838 144.504 178.699 143.21C182.433 141.958 185.938 140.131 189.117 137.78C192.26 135.455 195.015 132.671 197.305 129.504C199.624 126.298 201.414 122.771 202.626 119.021L202.639 118.983L202.657 118.946C204.268 115.726 205.509 112.319 206.345 108.82C207.206 105.22 207.642 101.5 207.642 97.7639C207.642 94.5477 207.318 91.3337 206.679 88.2112C206.056 85.1683 205.127 82.1752 203.917 79.3151C202.73 76.5067 201.259 73.798 199.548 71.2642C197.852 68.7543 195.905 66.3942 193.76 64.2492C191.615 62.1042 189.254 60.1569 186.745 58.4613C184.211 56.7494 181.502 55.2792 178.694 54.0914C175.834 52.8816 172.84 51.9525 169.798 51.3298C166.675 50.6908 163.461 50.3668 160.245 50.3668C154.92 50.3668 149.692 51.2433 144.709 52.9717L144.288 53.1175L144.07 52.7296C140.014 45.5179 134.115 39.4614 127.009 35.2149C123.416 33.0673 119.555 31.4078 115.535 30.2824C111.387 29.1212 107.078 28.5325 102.729 28.5325C96.8793 28.5325 91.1689 29.5854 85.7566 31.6618C80.5279 33.6678 75.7315 36.5654 71.5004 40.2742C67.2937 43.9617 63.8027 48.3126 61.1243 53.206C58.3801 58.2196 56.5865 63.6315 55.7934 69.2913L55.7341 69.7149L55.3076 69.7483C50.5369 70.1217 45.9469 71.3778 41.6651 73.4815C37.5046 75.5257 33.7894 78.2906 30.6228 81.6994C24.116 88.7038 20.5326 97.8298 20.5326 107.396C20.5326 112.495 21.531 117.44 23.5001 122.096C24.4465 124.333 25.6179 126.492 26.9819 128.51C28.3329 130.51 29.8845 132.391 31.5936 134.1C33.3026 135.809 35.1832 137.361 37.183 138.712C39.2019 140.075 41.3601 141.247 43.5977 142.193C48.2531 144.162 53.1987 145.161 58.2971 145.161H160.245H166.684ZM166.684 145.693H160.245H58.2971C37.1463 145.693 20 128.547 20 107.396C20 87.2653 35.5316 70.7621 55.266 69.2174C58.5303 45.9242 78.5364 28 102.729 28C120.677 28 136.321 37.8645 144.534 52.4686C149.456 50.7616 154.742 49.8343 160.245 49.8343C186.716 49.8343 208.174 71.2933 208.174 97.7639C208.174 105.463 206.359 112.739 203.133 119.185C198.162 134.568 183.722 145.693 166.684 145.693Z" fill="white" fill-opacity="0.5"/></g><defs><filter id="filter0_d_1506_811" x="0" y="-1.52588e-05" width="248.174" height="177.694" filterUnits="userSpaceOnUse" color-interpolation-filters="sRGB"><feFlood flood-opacity="0" result="BackgroundImageFix"/><feColorMatrix in="SourceAlpha" type="matrix" values="0 0 0 0 0 0 0 0 0 0 0 0 0 0 0 0 0 0 127 0" result="hardAlpha"/><feOffset dx="10" dy="2"/><feGaussianBlur stdDeviation="15"/><feColorMatrix type="matrix" values="0 0 0 0 0 0 0 0 0 0 0 0 0 0 0 0 0 0 0.25 0"/><feBlend mode="normal" in2="BackgroundImageFix" result="effect1_dropShadow_1506_811"/><feBlend mode="normal" in="SourceGraphic" in2="effect1_dropShadow_1506_811" result="shape"/></filter><linearGradient id="paint0_linear_1506_811" x1="114.101" y1="28.0013" x2="168.763" y2="160.161" gradientUnits="userSpaceOnUse"><stop stop-color="white" stop-opacity="0.604"/><stop offset="1" stop-color="white" stop-opacity="0.2"/></linearGradient></defs></svg>
  </symbol>
  <symbol id="weather-default" viewBox="0 0 24 24">
    <svg width="192" height="191" viewBox="0 0 192 191" fill="none" xmlns="http://www.w3.org/2000/svg"><g clip-path="url(#clip0_140_13)"><path d="M89.0813 89.9093H116.245L100.629 112.841L118.887 113.186L80.5646 158.545L89.8503 123.962H72.8511L89.0813 89.9093Z" fill="url(#paint0_linear_140_13)"/><path d="M131.055 114.045H142.981L136.125 124.113L144.141 124.265L127.315 144.179L131.392 128.996H123.93L131.055 114.045Z" fill="url(#paint1_linear_140_13)"/><path d="M48.4526 124.227H60.3788L53.5229 134.295L61.5393 134.447L44.7132 154.362L48.7902 139.178H41.3281L48.4526 124.227Z" fill="url(#paint2_linear_140_13)"/><g filter="url(#filter0_d_140_13)"><path d="M130.585 119.438H54.1959C46.7855 119.433 39.6645 116.561 34.3238 111.424C28.983 106.286 25.8365 99.2825 25.543 91.8779C25.2495 84.4733 27.8318 77.2422 32.7492 71.6985C37.6665 66.1547 44.5378 62.728 51.9245 62.1359C52.9779 54.6977 56.3367 47.777 61.5285 42.3473C66.7203 36.9177 73.4837 33.2523 80.8673 31.867C88.2508 30.4817 95.8829 31.4461 102.69 34.6246C109.497 37.803 115.136 43.0355 118.814 49.586C125.56 47.2508 132.848 46.9779 139.75 48.8022C146.651 50.6265 152.853 54.4653 157.564 59.8289C162.275 65.1924 165.281 71.8377 166.2 78.917C167.118 85.9963 165.907 93.1887 162.721 99.5769C160.851 105.348 157.201 110.379 152.295 113.948C147.388 117.516 141.478 119.438 135.411 119.438H130.585Z" fill="url(#paint3_linear_140_13)"/><path d="M135.411 119.039C138.492 119.039 141.52 118.547 144.413 117.577C147.21 116.639 149.837 115.27 152.219 113.509C154.574 111.767 156.638 109.681 158.354 107.309C160.092 104.906 161.434 102.264 162.342 99.4541L162.351 99.4253L162.365 99.3982C163.573 96.9848 164.503 94.4317 165.129 91.81C165.774 89.1123 166.101 86.3246 166.101 83.5244C166.101 81.1145 165.858 78.7063 165.379 76.3666C164.913 74.0865 164.217 71.8438 163.31 69.7006C162.42 67.5963 161.318 65.5667 160.036 63.6681C158.765 61.7874 157.306 60.0189 155.699 58.4117C154.092 56.8045 152.323 55.3453 150.442 54.0748C148.544 52.7921 146.514 51.6904 144.41 50.8004C142.267 49.8939 140.024 49.1977 137.744 48.7311C135.404 48.2524 132.996 48.0096 130.586 48.0096C126.596 48.0096 122.679 48.6663 118.945 49.9614L118.63 50.0707L118.466 49.78C115.427 44.3762 111.007 39.838 105.682 36.6561C102.99 35.047 100.097 33.8035 97.0846 32.9602C93.9766 32.0902 90.7484 31.649 87.4895 31.649C83.1061 31.649 78.8272 32.4379 74.7717 33.9938C70.8539 35.4969 67.2599 37.6681 64.0895 40.4471C60.9374 43.2102 58.3216 46.4704 56.3146 50.137C54.2584 53.8937 52.9145 57.9489 52.3202 62.1897L52.2757 62.5072L51.9562 62.5322C48.3814 62.812 44.9421 63.7532 41.7338 65.3295C38.6163 66.8613 35.8325 68.933 33.4597 71.4872C28.5841 76.7356 25.899 83.5738 25.899 90.742C25.899 94.5623 26.6472 98.2681 28.1226 101.756C28.8318 103.433 29.7096 105.05 30.7315 106.563C31.7439 108.061 32.9065 109.471 34.1871 110.751C35.4677 112.032 36.8769 113.194 38.3753 114.207C39.8881 115.229 41.5052 116.107 43.1818 116.816C46.6702 118.291 50.376 119.039 54.1962 119.039H130.586H135.411ZM135.411 119.438H130.586H54.1962C38.3478 119.438 25.5 106.59 25.5 90.742C25.5 75.6578 37.1379 63.2918 51.925 62.1344C54.3709 44.6807 69.3616 31.25 87.4895 31.25C100.938 31.25 112.66 38.6415 118.814 49.5844C122.502 48.3053 126.463 47.6105 130.586 47.6105C150.421 47.6105 166.5 63.6899 166.5 83.5244C166.5 89.2943 165.14 94.746 162.722 99.5768C158.996 111.102 148.177 119.438 135.411 119.438Z" fill="white" fill-opacity="0.5"/></g></g><defs><filter id="filter0_d_140_13" x="5.5" y="3.24998" width="201" height="148.188" filterUnits="userSpaceOnUse" color-interpolation-filters="sRGB"><feFlood flood-opacity="0" result="BackgroundImageFix"/><feColorMatrix in="SourceAlpha" type="matrix" values="0 0 0 0 0 0 0 0 0 0 0 0 0 0 0 0 0 0 127 0" result="hardAlpha"/><feOffset dx="10" dy="2"/><feGaussianBlur stdDeviation="15"/><feColorMatrix type="matrix" values="0 0 0 0 0.501961 0 0 0 0 0.501961 0 0 0 0 0.501961 0 0 0 0.302 0"/><feBlend mode="normal" in2="BackgroundImageFix" result="effect1_dropShadow_140_13"/><feBlend mode="normal" in="SourceGraphic" in2="effect1_dropShadow_140_13" result="shape"/></filter><linearGradient id="paint0_linear_140_13" x1="91.6339" y1="124.227" x2="70.13" y2="116.344" gradientUnits="userSpaceOnUse"><stop stop-color="#FFD100"/><stop offset="1" stop-color="#FFF0AA"/></linearGradient><linearGradient id="paint1_linear_140_13" x1="132.176" y1="129.112" x2="122.735" y2="125.651" gradientUnits="userSpaceOnUse"><stop stop-color="#FFD100"/><stop offset="1" stop-color="#FFF0AA"/></linearGradient><linearGradient id="paint2_linear_140_13" x1="49.5743" y1="139.294" x2="40.1334" y2="135.833" gradientUnits="userSpaceOnUse"><stop stop-color="#FFD100"/><stop offset="1" stop-color="#FFF0AA"/></linearGradient><linearGradient id="paint3_linear_140_13" x1="96.0095" y1="31.251" x2="136.968" y2="130.279" gradientUnits="userSpaceOnUse"><stop stop-color="white" stop-opacity="0.604"/><stop offset="1" stop-color="white" stop-opacity="0.2"/></linearGradient><clipPath id="clip0_140_13"><rect width="191" height="191" fill="white" transform="translate(0.682129)"/></clipPath></defs></svg>
  </symbol>

  <!-- Header icons -->
  <symbol id="logo" viewBox="0 0 90 87">
    <circle cx="31.3165" cy="27.2704" r="5.34212" fill="url(#paint0_radial_9403_641)"/>
    <path fill-rule="evenodd" clip-rule="evenodd" d="M37.098 41.9326V41.9329H30.0729C26.5763 41.9329 23.7417 39.0983 23.7417 35.6017C23.7417 32.105 26.5763 29.2704 30.0729 29.2704H30.4198C31.6471 29.2704 32.797 29.6015 33.7852 30.1792C35.0698 26.3731 38.6693 23.6328 42.9087 23.6328H43.3857C48.4391 23.6328 52.5357 27.7293 52.5357 32.7827C52.5357 37.836 48.4391 41.9326 43.3857 41.9326H37.098Z" fill="white"/>
  </symbol>

</svg>