<svg width="40" height="40" viewBox="0 0 40 40" fill="none" xmlns="http://www.w3.org/2000/svg">
<path d="M8.33325 7.50007C8.33325 6.39498 8.74297 5.33516 9.47228 4.55374C10.2016 3.77233 11.1907 3.33334 12.2221 3.33334L27.7777 3.33334C28.8091 3.33334 29.7983 3.77233 30.5276 4.55374C31.2569 5.33516 31.6666 6.39498 31.6666 7.50007V35.6255C31.6665 35.8139 31.6187 35.9988 31.5283 36.1604C31.4379 36.3221 31.3083 36.4544 31.1533 36.5433C30.9982 36.6323 30.8236 36.6745 30.6479 36.6655C30.4723 36.6565 30.3022 36.5966 30.1558 36.4922L19.9999 30.6275L9.84409 36.4922C9.69768 36.5966 9.52759 36.6565 9.35193 36.6655C9.17627 36.6745 9.00162 36.6323 8.84658 36.5433C8.69155 36.4544 8.56193 36.3221 8.47153 36.1604C8.38113 35.9988 8.33334 35.8139 8.33325 35.6255V7.50007ZM12.2221 5.4167C11.7064 5.4167 11.2119 5.6362 10.8472 6.02691C10.4826 6.41761 10.2777 6.94753 10.2777 7.50007V33.6797L19.4613 28.5087C19.6209 28.395 19.8083 28.3343 19.9999 28.3343C20.1916 28.3343 20.379 28.395 20.5385 28.5087L29.7221 33.6797V7.50007C29.7221 6.94753 29.5173 6.41761 29.1526 6.02691C28.788 5.6362 28.2934 5.4167 27.7777 5.4167H12.2221Z" fill="#8A91AB"/>
</svg>
