<svg width="192" height="191" viewBox="0 0 192 191" fill="none" xmlns="http://www.w3.org/2000/svg">
<g clip-path="url(#clip0_140_13)">
<path d="M89.0813 89.9093H116.245L100.629 112.841L118.887 113.186L80.5646 158.545L89.8503 123.962H72.8511L89.0813 89.9093Z" fill="url(#paint0_linear_140_13)"/>
<path d="M131.055 114.045H142.981L136.125 124.113L144.141 124.265L127.315 144.179L131.392 128.996H123.93L131.055 114.045Z" fill="url(#paint1_linear_140_13)"/>
<path d="M48.4526 124.227H60.3788L53.5229 134.295L61.5393 134.447L44.7132 154.362L48.7902 139.178H41.3281L48.4526 124.227Z" fill="url(#paint2_linear_140_13)"/>
<g filter="url(#filter0_d_140_13)">
<path d="M130.585 119.438H54.1959C46.7855 119.433 39.6645 116.561 34.3238 111.424C28.983 106.286 25.8365 99.2825 25.543 91.8779C25.2495 84.4733 27.8318 77.2422 32.7492 71.6985C37.6665 66.1547 44.5378 62.728 51.9245 62.1359C52.9779 54.6977 56.3367 47.777 61.5285 42.3473C66.7203 36.9177 73.4837 33.2523 80.8673 31.867C88.2508 30.4817 95.8829 31.4461 102.69 34.6246C109.497 37.803 115.136 43.0355 118.814 49.586C125.56 47.2508 132.848 46.9779 139.75 48.8022C146.651 50.6265 152.853 54.4653 157.564 59.8289C162.275 65.1924 165.281 71.8377 166.2 78.917C167.118 85.9963 165.907 93.1887 162.721 99.5769C160.851 105.348 157.201 110.379 152.295 113.948C147.388 117.516 141.478 119.438 135.411 119.438H130.585Z" fill="url(#paint3_linear_140_13)"/>
<path d="M135.411 119.039C138.492 119.039 141.52 118.547 144.413 117.577C147.21 116.639 149.837 115.27 152.219 113.509C154.574 111.767 156.638 109.681 158.354 107.309C160.092 104.906 161.434 102.264 162.342 99.4541L162.351 99.4253L162.365 99.3982C163.573 96.9848 164.503 94.4317 165.129 91.81C165.774 89.1123 166.101 86.3246 166.101 83.5244C166.101 81.1145 165.858 78.7063 165.379 76.3666C164.913 74.0865 164.217 71.8438 163.31 69.7006C162.42 67.5963 161.318 65.5667 160.036 63.6681C158.765 61.7874 157.306 60.0189 155.699 58.4117C154.092 56.8045 152.323 55.3453 150.442 54.0748C148.544 52.7921 146.514 51.6904 144.41 50.8004C142.267 49.8939 140.024 49.1977 137.744 48.7311C135.404 48.2524 132.996 48.0096 130.586 48.0096C126.596 48.0096 122.679 48.6663 118.945 49.9614L118.63 50.0707L118.466 49.78C115.427 44.3762 111.007 39.838 105.682 36.6561C102.99 35.047 100.097 33.8035 97.0846 32.9602C93.9766 32.0902 90.7484 31.649 87.4895 31.649C83.1061 31.649 78.8272 32.4379 74.7717 33.9938C70.8539 35.4969 67.2599 37.6681 64.0895 40.4471C60.9374 43.2102 58.3216 46.4704 56.3146 50.137C54.2584 53.8937 52.9145 57.9489 52.3202 62.1897L52.2757 62.5072L51.9562 62.5322C48.3814 62.812 44.9421 63.7532 41.7338 65.3295C38.6163 66.8613 35.8325 68.933 33.4597 71.4872C28.5841 76.7356 25.899 83.5738 25.899 90.742C25.899 94.5623 26.6472 98.2681 28.1226 101.756C28.8318 103.433 29.7096 105.05 30.7315 106.563C31.7439 108.061 32.9065 109.471 34.1871 110.751C35.4677 112.032 36.8769 113.194 38.3753 114.207C39.8881 115.229 41.5052 116.107 43.1818 116.816C46.6702 118.291 50.376 119.039 54.1962 119.039H130.586H135.411ZM135.411 119.438H130.586H54.1962C38.3478 119.438 25.5 106.59 25.5 90.742C25.5 75.6578 37.1379 63.2918 51.925 62.1344C54.3709 44.6807 69.3616 31.25 87.4895 31.25C100.938 31.25 112.66 38.6415 118.814 49.5844C122.502 48.3053 126.463 47.6105 130.586 47.6105C150.421 47.6105 166.5 63.6899 166.5 83.5244C166.5 89.2943 165.14 94.746 162.722 99.5768C158.996 111.102 148.177 119.438 135.411 119.438Z" fill="white" fill-opacity="0.5"/>
</g>
</g>
<defs>
<filter id="filter0_d_140_13" x="5.5" y="3.24998" width="201" height="148.188" filterUnits="userSpaceOnUse" color-interpolation-filters="sRGB">
<feFlood flood-opacity="0" result="BackgroundImageFix"/>
<feColorMatrix in="SourceAlpha" type="matrix" values="0 0 0 0 0 0 0 0 0 0 0 0 0 0 0 0 0 0 127 0" result="hardAlpha"/>
<feOffset dx="10" dy="2"/>
<feGaussianBlur stdDeviation="15"/>
<feColorMatrix type="matrix" values="0 0 0 0 0.501961 0 0 0 0 0.501961 0 0 0 0 0.501961 0 0 0 0.302 0"/>
<feBlend mode="normal" in2="BackgroundImageFix" result="effect1_dropShadow_140_13"/>
<feBlend mode="normal" in="SourceGraphic" in2="effect1_dropShadow_140_13" result="shape"/>
</filter>
<linearGradient id="paint0_linear_140_13" x1="91.6339" y1="124.227" x2="70.13" y2="116.344" gradientUnits="userSpaceOnUse">
<stop stop-color="#FFD100"/>
<stop offset="1" stop-color="#FFF0AA"/>
</linearGradient>
<linearGradient id="paint1_linear_140_13" x1="132.176" y1="129.112" x2="122.735" y2="125.651" gradientUnits="userSpaceOnUse">
<stop stop-color="#FFD100"/>
<stop offset="1" stop-color="#FFF0AA"/>
</linearGradient>
<linearGradient id="paint2_linear_140_13" x1="49.5743" y1="139.294" x2="40.1334" y2="135.833" gradientUnits="userSpaceOnUse">
<stop stop-color="#FFD100"/>
<stop offset="1" stop-color="#FFF0AA"/>
</linearGradient>
<linearGradient id="paint3_linear_140_13" x1="96.0095" y1="31.251" x2="136.968" y2="130.279" gradientUnits="userSpaceOnUse">
<stop stop-color="white" stop-opacity="0.604"/>
<stop offset="1" stop-color="white" stop-opacity="0.2"/>
</linearGradient>
<clipPath id="clip0_140_13">
<rect width="191" height="191" fill="white" transform="translate(0.682129)"/>
</clipPath>
</defs>
</svg>
