<svg width="24" height="24" viewBox="0 0 24 24" fill="none" xmlns="http://www.w3.org/2000/svg">
<g clip-path="url(#clip0_140_9)">
<ellipse cx="12.0002" cy="13" rx="10.8" ry="10.8" fill="#494F68"/>
<path d="M14.1665 14.1053C14.3406 13.7656 14.4334 13.3874 14.4334 12.9948C14.4334 11.6471 13.3427 10.5562 11.9948 10.5562C11.602 10.5562 11.224 10.649 10.8843 10.8231L8.28098 8.21982C7.98788 7.92673 7.51277 7.92673 7.21982 8.21982C6.92673 8.51277 6.92673 8.98788 7.21982 9.28098L9.8231 11.8843C9.649 12.224 9.55624 12.6022 9.55624 12.9948C9.55624 14.3425 10.6468 15.4334 11.9948 15.4334C12.3875 15.4334 12.7656 15.3406 13.1053 15.1665L13.7191 15.7802C14.012 16.0732 14.4873 16.0733 14.7802 15.7802C15.0733 15.4873 15.0733 15.0122 14.7802 14.7191L14.1665 14.1053ZM11.9948 13.9327C11.4765 13.9327 11.0569 13.5133 11.0569 12.9948C11.0569 12.4782 11.4756 12.0569 11.9948 12.0569C12.5131 12.0569 12.9327 12.4763 12.9327 12.9948C12.9327 13.5114 12.514 13.9327 11.9948 13.9327Z" fill="white"/>
</g>
<defs>
<clipPath id="clip0_140_9">
<rect width="24" height="24" fill="white"/>
</clipPath>
</defs>
</svg>
